<?xml version="1.0" encoding="utf-8"?>
<!-- Generator: Adobe Illustrator 23.0.2, SVG Export Plug-In . SVG Version: 6.00 Build 0)  -->
<svg version="1.1" id="图层_1" xmlns="http://www.w3.org/2000/svg" xmlns:xlink="http://www.w3.org/1999/xlink" x="0px" y="0px"
	 viewBox="0 0 120 120" style="enable-background:new 0 0 120 120;" xml:space="preserve">
<style type="text/css">
	.st0{opacity:0.03;}
	.st1{fill:#231815;}
</style>
<g class="st0">
	<polygon class="st1" points="0.011,0.859 45.342,59.14 38.866,39.713 	"/>
	<polygon class="st1" points="39.722,38.854 59.15,45.329 0.868,0 	"/>
	<polygon class="st1" points="59.773,46.813 40.346,40.337 46.821,59.764 	"/>
	<polygon class="st1" points="0.859,119.971 59.141,74.642 39.714,81.117 	"/>
	<polygon class="st1" points="38.855,80.261 45.331,60.834 0,119.115 	"/>
	<polygon class="st1" points="46.814,60.211 40.338,79.638 59.765,73.162 	"/>
	<polygon class="st1" points="80.275,38.854 60.847,45.329 119.13,0 	"/>
	<polygon class="st1" points="81.134,39.71 74.658,59.137 119.989,0.856 	"/>
	<polygon class="st1" points="73.175,59.76 79.65,40.333 60.223,46.809 	"/>
	<polygon class="st1" points="120,119.141 74.669,60.86 81.145,80.287 	"/>
	<polygon class="st1" points="80.289,81.146 60.862,74.671 119.144,120 	"/>
	<polygon class="st1" points="60.238,73.187 79.666,79.663 73.19,60.236 	"/>
</g>
</svg>
